<?xml version="1.0" encoding="utf-8"?>
<!-- Generator: Adobe Illustrator 24.0.2, SVG Export Plug-In . SVG Version: 6.00 Build 0)  -->
<svg version="1.1" xmlns="http://www.w3.org/2000/svg" xmlns:xlink="http://www.w3.org/1999/xlink" x="0px" y="0px"
	 viewBox="0 0 563 124.63" style="enable-background:new 0 0 563 124.63;" xml:space="preserve">
<style type="text/css">
	.st0{display:none;}
	.st1{display:inline;}
	.st2{fill:#001689;}
	.st3{fill:#99E6D8;}
	.st4{fill:#0082CA;}
	.st5{fill:#6FCFEB;}
	.st6{fill:#FFFFFF;}
</style>
<g id="azul" class="st0">
	<g class="st1">
		<path class="st2" d="M212.83,108.18l-6.58,16.15h2.11l1.93-4.86h6.75l1.93,4.86h2.14l-6.58-16.15H212.83z M216.35,117.69H211
			l0.6-1.52c0.66-1.64,1.34-3.47,2.06-5.48h0.05c0.69,1.98,1.36,3.81,2.02,5.48L216.35,117.69z"/>
		<polygon class="st2" points="225.55,108.18 223.58,108.18 223.58,124.32 233.43,124.32 233.43,122.55 225.55,122.55 		"/>
		<path class="st2" d="M246.66,117.11c-0.29-0.3-0.63-0.55-1.03-0.74c-0.4-0.19-0.85-0.33-1.35-0.4v-0.05
			c0.47-0.16,0.86-0.36,1.19-0.6c0.33-0.24,0.59-0.52,0.8-0.82c0.21-0.31,0.35-0.64,0.45-1c0.09-0.36,0.14-0.74,0.14-1.13
			c0-0.49-0.08-0.95-0.23-1.36c-0.15-0.42-0.38-0.79-0.66-1.12c-0.29-0.33-0.63-0.61-1.04-0.85c-0.41-0.24-0.86-0.42-1.37-0.56
			c-0.19-0.05-0.39-0.09-0.61-0.13c-0.21-0.04-0.45-0.07-0.7-0.09c-0.25-0.02-0.52-0.04-0.82-0.05c-0.3-0.01-0.63-0.02-1-0.02h-3.98
			v16.15h4.13c0.81,0,1.51-0.03,2.09-0.1c0.58-0.06,1.11-0.18,1.59-0.34c0.62-0.21,1.14-0.48,1.56-0.81
			c0.42-0.33,0.76-0.69,1.01-1.08c0.26-0.39,0.44-0.79,0.55-1.21c0.11-0.41,0.17-0.81,0.17-1.19c0-0.53-0.08-1-0.23-1.42
			C247.17,117.77,246.95,117.42,246.66,117.11z M238.41,109.95h2.21c0.55,0,1.02,0.02,1.42,0.05c0.4,0.04,0.76,0.1,1.06,0.19
			c0.62,0.18,1.07,0.47,1.36,0.84c0.29,0.38,0.43,0.86,0.43,1.46c0,0.58-0.14,1.08-0.42,1.51c-0.28,0.43-0.72,0.74-1.32,0.94
			c-0.23,0.07-0.48,0.13-0.76,0.16c-0.28,0.04-0.62,0.05-1,0.05h-2.99V109.95z M245.49,120.4c-0.07,0.26-0.18,0.5-0.34,0.73
			c-0.16,0.23-0.36,0.44-0.62,0.63c-0.26,0.19-0.57,0.34-0.94,0.46c-0.34,0.11-0.75,0.2-1.23,0.25c-0.48,0.05-1.01,0.08-1.57,0.08
			h-2.38v-5.61h3.08c0.46,0,0.84,0.01,1.15,0.04c0.31,0.02,0.59,0.06,0.83,0.12c0.4,0.09,0.74,0.21,1.01,0.37
			c0.27,0.16,0.49,0.35,0.65,0.56c0.16,0.21,0.28,0.45,0.36,0.72c0.07,0.27,0.11,0.56,0.11,0.86
			C245.59,119.88,245.56,120.14,245.49,120.4z"/>
		<polygon class="st2" points="253.07,116.94 260.04,116.94 260.04,115.16 253.07,115.16 253.07,109.95 260.91,109.95 
			260.91,108.18 251.11,108.18 251.11,124.32 261.35,124.32 261.35,122.55 253.07,122.55 		"/>
		<path class="st2" d="M271.23,117.37c0.64-0.11,1.23-0.29,1.76-0.53c0.53-0.24,0.98-0.55,1.36-0.93c0.38-0.38,0.67-0.82,0.88-1.34
			c0.21-0.51,0.31-1.1,0.31-1.75c0-1.1-0.3-2.02-0.89-2.76c-0.6-0.73-1.45-1.26-2.58-1.56c-0.41-0.11-0.86-0.19-1.36-0.25
			c-0.49-0.05-1.09-0.08-1.8-0.08h-4.18v16.15h1.97v-6.68h2.38l4.97,6.68h1.97l-4.78-6.9V117.37z M268.64,115.86h-1.94v-5.91h2.23
			c0.62,0,1.13,0.02,1.53,0.06c0.4,0.04,0.75,0.1,1.04,0.19c0.61,0.18,1.09,0.49,1.44,0.91c0.35,0.42,0.52,0.98,0.53,1.67
			c0,0.74-0.19,1.34-0.56,1.8c-0.37,0.46-0.9,0.79-1.58,1c-0.34,0.1-0.72,0.18-1.15,0.22C269.76,115.84,269.24,115.86,268.64,115.86
			z"/>
		<path class="st2" d="M289,122.71c-0.31,0.05-0.61,0.09-0.91,0.12c-0.3,0.03-0.59,0.04-0.85,0.04c-0.99,0-1.88-0.13-2.68-0.39
			c-0.8-0.26-1.49-0.65-2.06-1.19c-0.57-0.54-1.01-1.21-1.32-2.03c-0.31-0.82-0.46-1.78-0.46-2.89c0-1.12,0.17-2.1,0.5-2.94
			c0.33-0.84,0.79-1.54,1.37-2.11c0.58-0.57,1.26-0.99,2.05-1.28c0.79-0.29,1.63-0.43,2.53-0.43c0.59,0,1.17,0.05,1.75,0.16
			c0.58,0.11,1.11,0.24,1.6,0.4v-1.74c-0.19-0.08-0.41-0.16-0.66-0.23c-0.26-0.07-0.54-0.13-0.84-0.19
			c-0.3-0.05-0.62-0.09-0.95-0.12c-0.33-0.03-0.66-0.04-1-0.04c-1.28,0-2.43,0.21-3.46,0.63c-1.03,0.42-1.9,1.01-2.62,1.77
			c-0.72,0.76-1.27,1.66-1.65,2.72c-0.38,1.05-0.57,2.21-0.57,3.46c0,1.28,0.18,2.42,0.54,3.43c0.36,1.01,0.89,1.86,1.6,2.56
			c0.7,0.7,1.57,1.24,2.61,1.61c1.04,0.37,2.23,0.56,3.57,0.56c0.66,0,1.3-0.05,1.93-0.15c0.63-0.1,1.18-0.24,1.65-0.43v-1.74
			c-0.23,0.08-0.49,0.15-0.78,0.22C289.6,122.6,289.3,122.66,289,122.71z"/>
		<path class="st2" d="M298.87,108.18l-6.58,16.15h2.11l1.93-4.86h6.75l1.93,4.86h2.14l-6.58-16.15H298.87z M302.39,117.69h-5.35
			l0.6-1.52c0.66-1.64,1.34-3.47,2.06-5.48h0.05c0.69,1.98,1.36,3.81,2.02,5.48L302.39,117.69z"/>
		<path class="st2" d="M318.19,116.52c-0.47-0.33-1.01-0.58-1.62-0.77c-0.61-0.18-1.22-0.35-1.85-0.51
			c-0.47-0.11-0.91-0.23-1.34-0.36c-0.43-0.13-0.81-0.29-1.13-0.5c-0.33-0.2-0.58-0.46-0.78-0.77c-0.19-0.31-0.29-0.7-0.29-1.18
			c0-0.43,0.07-0.81,0.22-1.16c0.14-0.35,0.37-0.65,0.66-0.89c0.3-0.25,0.67-0.44,1.12-0.57c0.45-0.13,0.98-0.2,1.59-0.2
			c0.81,0.01,1.57,0.1,2.29,0.28c0.71,0.18,1.4,0.41,2.07,0.69v-1.82c-0.62-0.27-1.3-0.48-2.05-0.65c-0.74-0.17-1.55-0.25-2.41-0.25
			c-0.76,0-1.47,0.09-2.14,0.28c-0.67,0.18-1.26,0.47-1.77,0.86c-0.51,0.39-0.92,0.87-1.22,1.47c-0.3,0.59-0.45,1.3-0.45,2.12
			c0,0.79,0.14,1.44,0.43,1.94c0.29,0.51,0.66,0.92,1.13,1.24c0.47,0.32,1.01,0.57,1.61,0.75c0.6,0.18,1.21,0.34,1.84,0.49
			c0.47,0.11,0.93,0.23,1.36,0.36c0.43,0.13,0.81,0.29,1.14,0.5c0.33,0.2,0.59,0.46,0.79,0.78c0.2,0.31,0.3,0.71,0.3,1.19
			c0,0.59-0.11,1.08-0.34,1.47c-0.22,0.39-0.53,0.7-0.92,0.92c-0.39,0.22-0.83,0.39-1.35,0.48c-0.51,0.1-1.05,0.14-1.61,0.14
			c-0.35,0-0.72-0.02-1.11-0.07c-0.39-0.05-0.78-0.11-1.17-0.2c-0.39-0.08-0.76-0.19-1.12-0.31c-0.36-0.12-0.69-0.25-0.98-0.4v1.8
			c0.18,0.11,0.44,0.23,0.76,0.34s0.68,0.21,1.08,0.3s0.82,0.16,1.26,0.21c0.44,0.05,0.87,0.08,1.28,0.08
			c0.91,0,1.75-0.09,2.51-0.28c0.76-0.19,1.43-0.48,1.99-0.87c0.56-0.39,1-0.89,1.32-1.5c0.32-0.61,0.48-1.33,0.48-2.17
			c0-0.82-0.15-1.49-0.44-2.02C319.05,117.27,318.67,116.85,318.19,116.52z"/>
		<polygon class="st2" points="330.81,116.02 330.75,116.02 326.07,108.18 323.92,108.18 329.8,117.83 329.8,124.32 331.76,124.32 
			331.76,117.83 337.64,108.18 335.49,108.18 		"/>
		<path class="st2" d="M347.88,120.38c0,0.47-0.06,0.87-0.18,1.19c-0.12,0.32-0.29,0.58-0.51,0.77c-0.22,0.19-0.48,0.33-0.78,0.41
			c-0.31,0.08-0.64,0.12-1,0.12c-0.4,0-0.78-0.03-1.13-0.1c-0.35-0.07-0.67-0.16-0.97-0.28v1.74c0.19,0.09,0.48,0.17,0.86,0.26
			c0.38,0.08,0.85,0.13,1.41,0.14c0.65,0,1.24-0.08,1.76-0.25c0.52-0.17,0.97-0.42,1.35-0.75c0.37-0.33,0.66-0.75,0.86-1.25
			c0.2-0.5,0.3-1.08,0.3-1.75v-12.44h-1.97V120.38z"/>
		<path class="st2" d="M358.84,108.18l-6.58,16.15h2.11l1.93-4.86h6.75l1.93,4.86h2.14l-6.58-16.15H358.84z M362.36,117.69h-5.35
			l0.6-1.52c0.66-1.64,1.34-3.47,2.06-5.48h0.05c0.69,1.98,1.36,3.81,2.02,5.48L362.36,117.69z"/>
		<path class="st2" d="M376.1,117.37c0.64-0.11,1.23-0.29,1.76-0.53c0.53-0.24,0.98-0.55,1.36-0.93c0.38-0.38,0.67-0.82,0.88-1.34
			c0.21-0.51,0.31-1.1,0.31-1.75c0-1.1-0.3-2.02-0.89-2.76c-0.6-0.73-1.45-1.26-2.58-1.56c-0.41-0.11-0.86-0.19-1.36-0.25
			c-0.49-0.05-1.1-0.08-1.8-0.08h-4.18v16.15h1.97v-6.68h2.38l4.97,6.68h1.97l-4.78-6.9V117.37z M373.5,115.86h-1.94v-5.91h2.23
			c0.62,0,1.13,0.02,1.53,0.06c0.4,0.04,0.75,0.1,1.04,0.19c0.61,0.18,1.09,0.49,1.44,0.91c0.35,0.42,0.52,0.98,0.53,1.67
			c0,0.74-0.18,1.34-0.56,1.8c-0.37,0.46-0.9,0.79-1.58,1c-0.34,0.1-0.72,0.18-1.15,0.22C374.62,115.84,374.11,115.86,373.5,115.86z
			"/>
		<path class="st2" d="M395.92,111.38c-0.46-0.65-1.05-1.21-1.75-1.68c-0.7-0.47-1.53-0.84-2.47-1.11
			c-0.54-0.15-1.12-0.26-1.75-0.32c-0.63-0.06-1.31-0.09-2.04-0.09h-3.69v16.15h3.66c0.73,0,1.41-0.03,2.04-0.09
			c0.63-0.06,1.21-0.17,1.75-0.32c0.94-0.27,1.76-0.64,2.47-1.12s1.29-1.06,1.76-1.72c0.47-0.66,0.82-1.41,1.06-2.24
			c0.23-0.83,0.35-1.71,0.35-2.66c0-0.93-0.11-1.8-0.34-2.61C396.73,112.76,396.38,112.03,395.92,111.38z M394.32,120.04
			c-0.69,1.01-1.67,1.71-2.95,2.11c-0.49,0.15-1.04,0.26-1.64,0.31c-0.6,0.06-1.28,0.08-2.04,0.08h-1.5v-12.6h1.5
			c0.76,0,1.44,0.03,2.04,0.08c0.6,0.06,1.15,0.16,1.64,0.31c1.28,0.4,2.26,1.09,2.95,2.05c0.69,0.96,1.03,2.22,1.03,3.78
			C395.34,117.75,395,119.03,394.32,120.04z"/>
		<rect x="400.8" y="108.18" class="st2" width="1.97" height="16.15"/>
		<path class="st2" d="M418.01,116.77c0,1.63,0.05,3.23,0.16,4.8h-0.07c-0.96-1.5-1.94-2.97-2.93-4.39l-6.34-9h-1.96v16.15h1.97
			v-8.24c0-1.96-0.05-3.68-0.16-5.15h0.07c0.86,1.36,1.84,2.82,2.93,4.39l6.34,9h1.97v-16.15h-1.98V116.77z"/>
		<polygon class="st2" points="426.04,116.94 433.01,116.94 433.01,115.16 426.04,115.16 426.04,109.95 433.88,109.95 
			433.88,108.18 424.08,108.18 424.08,124.32 434.32,124.32 434.32,122.55 426.04,122.55 		"/>
		<path class="st2" d="M446.27,116.52c-0.47-0.33-1.01-0.58-1.62-0.77c-0.61-0.18-1.22-0.35-1.85-0.51
			c-0.47-0.11-0.91-0.23-1.34-0.36c-0.43-0.13-0.81-0.29-1.13-0.5c-0.33-0.2-0.58-0.46-0.78-0.77c-0.19-0.31-0.29-0.7-0.29-1.18
			c0-0.43,0.07-0.81,0.22-1.16c0.14-0.35,0.37-0.65,0.66-0.89c0.3-0.25,0.67-0.44,1.12-0.57s0.98-0.2,1.59-0.2
			c0.81,0.01,1.57,0.1,2.29,0.28c0.71,0.18,1.4,0.41,2.07,0.69v-1.82c-0.62-0.27-1.3-0.48-2.05-0.65c-0.74-0.17-1.55-0.25-2.41-0.25
			c-0.76,0-1.47,0.09-2.14,0.28c-0.67,0.18-1.26,0.47-1.77,0.86c-0.51,0.39-0.92,0.87-1.22,1.47c-0.3,0.59-0.45,1.3-0.45,2.12
			c0,0.79,0.14,1.44,0.43,1.94c0.29,0.51,0.66,0.92,1.13,1.24c0.47,0.32,1.01,0.57,1.6,0.75c0.6,0.18,1.21,0.34,1.84,0.49
			c0.47,0.11,0.93,0.23,1.36,0.36c0.43,0.13,0.81,0.29,1.14,0.5c0.33,0.2,0.59,0.46,0.79,0.78c0.2,0.31,0.3,0.71,0.3,1.19
			c0,0.59-0.11,1.08-0.34,1.47c-0.22,0.39-0.53,0.7-0.92,0.92c-0.39,0.22-0.83,0.39-1.35,0.48c-0.51,0.1-1.05,0.14-1.61,0.14
			c-0.35,0-0.72-0.02-1.11-0.07c-0.39-0.05-0.78-0.11-1.17-0.2c-0.39-0.08-0.76-0.19-1.12-0.31c-0.36-0.12-0.69-0.25-0.98-0.4v1.8
			c0.18,0.11,0.44,0.23,0.76,0.34s0.68,0.21,1.08,0.3c0.4,0.09,0.82,0.16,1.25,0.21c0.44,0.05,0.87,0.08,1.29,0.08
			c0.91,0,1.75-0.09,2.51-0.28c0.76-0.19,1.43-0.48,1.99-0.87c0.56-0.39,1-0.89,1.32-1.5c0.32-0.61,0.48-1.33,0.48-2.17
			c0-0.82-0.15-1.49-0.44-2.02C447.13,117.27,446.75,116.85,446.27,116.52z"/>
		<path class="st2" d="M465.85,117.31c-0.38,0.88-0.86,2.14-1.44,3.78h-0.06c-0.52-1.47-1-2.73-1.44-3.78l-3.8-9.14h-2.84v16.15
			h1.97v-7.81c0-1.87-0.06-3.92-0.17-6.17h0.1c0.56,1.56,1.13,3,1.69,4.33l4.07,9.64h0.9l4.07-9.64c0.53-1.24,1.09-2.68,1.69-4.33
			h0.1c-0.11,2.28-0.17,4.34-0.17,6.17v7.81h1.97v-16.15h-2.84L465.85,117.31z"/>
		<path class="st2" d="M489.03,110.23c-0.65-0.74-1.44-1.32-2.36-1.73c-0.93-0.41-1.98-0.62-3.15-0.62c-1.15,0-2.19,0.21-3.11,0.62
			c-0.93,0.41-1.71,0.99-2.36,1.73c-0.65,0.74-1.15,1.62-1.51,2.65c-0.35,1.03-0.53,2.15-0.53,3.38c0,1.22,0.17,2.35,0.52,3.37
			c0.34,1.02,0.84,1.9,1.48,2.64c0.65,0.74,1.44,1.32,2.37,1.73c0.93,0.41,1.99,0.62,3.17,0.62c1.14,0,2.17-0.21,3.09-0.62
			c0.92-0.41,1.71-0.99,2.36-1.73c0.65-0.74,1.16-1.62,1.51-2.64c0.35-1.02,0.53-2.14,0.53-3.37c0-1.23-0.17-2.36-0.52-3.38
			C490.17,111.85,489.67,110.97,489.03,110.23z M488.64,119.13c-0.28,0.82-0.68,1.51-1.18,2.07c-0.5,0.56-1.09,0.97-1.76,1.26
			c-0.67,0.28-1.4,0.42-2.18,0.42c-0.79,0-1.52-0.14-2.2-0.42s-1.27-0.7-1.77-1.26c-0.5-0.55-0.89-1.24-1.18-2.07
			s-0.43-1.78-0.43-2.87c0-1.09,0.14-2.04,0.43-2.87c0.28-0.83,0.68-1.52,1.18-2.08c0.5-0.56,1.09-0.97,1.77-1.26
			c0.68-0.29,1.41-0.43,2.19-0.43s1.51,0.14,2.19,0.43c0.68,0.29,1.27,0.71,1.77,1.26c0.5,0.56,0.89,1.25,1.18,2.08
			c0.28,0.83,0.43,1.79,0.43,2.87C489.07,117.35,488.93,118.3,488.64,119.13z"/>
		<path class="st2" d="M501.15,117.37c0.64-0.11,1.23-0.29,1.76-0.53c0.53-0.24,0.98-0.55,1.36-0.93c0.38-0.38,0.67-0.82,0.88-1.34
			c0.21-0.51,0.31-1.1,0.31-1.75c0-1.1-0.3-2.02-0.89-2.76c-0.6-0.73-1.45-1.26-2.58-1.56c-0.41-0.11-0.86-0.19-1.36-0.25
			c-0.49-0.05-1.1-0.08-1.8-0.08h-4.18v16.15h1.97v-6.68h2.38l4.97,6.68h1.97l-4.78-6.9V117.37z M498.55,115.86h-1.94v-5.91h2.23
			c0.62,0,1.13,0.02,1.53,0.06c0.4,0.04,0.75,0.1,1.04,0.19c0.61,0.18,1.09,0.49,1.44,0.91c0.35,0.42,0.52,0.98,0.53,1.67
			c0,0.74-0.18,1.34-0.56,1.8c-0.37,0.46-0.9,0.79-1.58,1c-0.34,0.1-0.72,0.18-1.15,0.22C499.67,115.84,499.16,115.86,498.55,115.86
			z"/>
		<polygon class="st2" points="511.24,116.94 518.2,116.94 518.2,115.16 511.24,115.16 511.24,109.95 519.07,109.95 519.07,108.18 
			509.27,108.18 509.27,124.32 519.51,124.32 519.51,122.55 511.24,122.55 		"/>
		<polygon class="st2" points="524.86,108.18 522.89,108.18 522.89,124.32 532.74,124.32 532.74,122.55 524.86,122.55 		"/>
		<path class="st2" d="M547.23,110.23c-0.65-0.74-1.44-1.32-2.36-1.73c-0.93-0.41-1.98-0.62-3.15-0.62c-1.15,0-2.19,0.21-3.11,0.62
			c-0.93,0.41-1.71,0.99-2.36,1.73c-0.65,0.74-1.15,1.62-1.51,2.65c-0.35,1.03-0.53,2.15-0.53,3.38c0,1.22,0.17,2.35,0.52,3.37
			c0.34,1.02,0.84,1.9,1.48,2.64c0.65,0.74,1.44,1.32,2.37,1.73c0.93,0.41,1.99,0.62,3.17,0.62c1.14,0,2.17-0.21,3.09-0.62
			c0.92-0.41,1.71-0.99,2.36-1.73c0.65-0.74,1.16-1.62,1.51-2.64c0.35-1.02,0.53-2.14,0.53-3.37c0-1.23-0.17-2.36-0.52-3.38
			C548.37,111.85,547.87,110.97,547.23,110.23z M546.84,119.13c-0.28,0.82-0.68,1.51-1.18,2.07c-0.5,0.56-1.09,0.97-1.76,1.26
			c-0.67,0.28-1.4,0.42-2.18,0.42c-0.79,0-1.52-0.14-2.2-0.42s-1.27-0.7-1.77-1.26c-0.5-0.55-0.89-1.24-1.18-2.07
			s-0.43-1.78-0.43-2.87c0-1.09,0.14-2.04,0.43-2.87c0.28-0.83,0.68-1.52,1.18-2.08c0.5-0.56,1.09-0.97,1.77-1.26
			c0.68-0.29,1.41-0.43,2.19-0.43c0.78,0,1.51,0.14,2.19,0.43c0.68,0.29,1.27,0.71,1.77,1.26c0.5,0.56,0.89,1.25,1.18,2.08
			c0.28,0.83,0.43,1.79,0.43,2.87C547.27,117.35,547.13,118.3,546.84,119.13z"/>
		<path class="st2" d="M562.57,117.79c-0.29-0.52-0.68-0.95-1.15-1.27c-0.47-0.33-1.01-0.58-1.62-0.77
			c-0.61-0.18-1.22-0.35-1.85-0.51c-0.47-0.11-0.91-0.23-1.34-0.36c-0.43-0.13-0.81-0.29-1.13-0.5c-0.33-0.2-0.58-0.46-0.78-0.77
			c-0.19-0.31-0.29-0.7-0.29-1.18c0-0.43,0.07-0.81,0.22-1.16c0.14-0.35,0.37-0.65,0.66-0.89c0.3-0.25,0.67-0.44,1.12-0.57
			s0.98-0.2,1.59-0.2c0.81,0.01,1.57,0.1,2.29,0.28c0.71,0.18,1.4,0.41,2.07,0.69v-1.82c-0.62-0.27-1.3-0.48-2.05-0.65
			c-0.74-0.17-1.55-0.25-2.41-0.25c-0.76,0-1.47,0.09-2.14,0.28c-0.67,0.18-1.26,0.47-1.77,0.86c-0.51,0.39-0.92,0.87-1.22,1.47
			c-0.3,0.59-0.45,1.3-0.45,2.12c0,0.79,0.14,1.44,0.43,1.94c0.29,0.51,0.66,0.92,1.13,1.24c0.47,0.32,1.01,0.57,1.6,0.75
			c0.6,0.18,1.21,0.34,1.84,0.49c0.47,0.11,0.93,0.23,1.36,0.36c0.43,0.13,0.81,0.29,1.14,0.5c0.33,0.2,0.59,0.46,0.79,0.78
			c0.2,0.31,0.3,0.71,0.3,1.19c0,0.59-0.11,1.08-0.34,1.47c-0.22,0.39-0.53,0.7-0.92,0.92c-0.39,0.22-0.83,0.39-1.35,0.48
			c-0.51,0.1-1.05,0.14-1.61,0.14c-0.35,0-0.72-0.02-1.11-0.07c-0.39-0.05-0.78-0.11-1.17-0.2c-0.39-0.08-0.76-0.19-1.12-0.31
			c-0.36-0.12-0.69-0.25-0.98-0.4v1.8c0.18,0.11,0.44,0.23,0.76,0.34s0.68,0.21,1.08,0.3c0.4,0.09,0.82,0.16,1.25,0.21
			c0.44,0.05,0.87,0.08,1.29,0.08c0.91,0,1.75-0.09,2.51-0.28c0.76-0.19,1.43-0.48,1.99-0.87c0.56-0.39,1-0.89,1.32-1.5
			c0.32-0.61,0.48-1.33,0.48-2.17C563,118.99,562.86,118.32,562.57,117.79z"/>
		<path class="st3" d="M134.54,30.61c-9.26-8.78-20.95-10.34-26.95-10.5c-0.84,0.61-1.67,1.25-2.48,1.92
			c-7.82,6.48-13.33,15.04-15.97,24.76c4.45,0.03,9.72,0.26,15.89,0.8c24.22,2.15,45.01,18.3,45.01,18.3S147.56,42.97,134.54,30.61z
			"/>
		<g>
			<g>
				<path class="st4" d="M198.84,63.93c-0.04,0.05-0.07,0.11-0.11,0.17c-3.1,4.33,0.09,10.19,0.67,11.21
					c-0.3-0.61-1.31-2.98,0.09-6.94c0.04-0.12,0.09-0.22,0.14-0.33c1.99-4.17,11.3-1.74,7.6,6.92c-0.27,0.63-0.62,1.22-1.04,1.79
					c-2.5,3.39-7.58,5.67-13.39,6.82c-1.47,0.29-2.97,0.51-4.5,0.66c-2.28,0.23-4.6,0.3-6.85,0.16c-0.63-0.02-1.27-0.07-1.9-0.12
					c-4.43,3.24-10.23,5.4-16.09,5.72c-1.41,0.09-2.82,0.07-4.22-0.07c-1.74-0.16-3.43-0.47-5.09-0.91c-0.05,0-0.07,0-0.12-0.02
					c-1.95-0.49-3.85-1.15-5.63-1.88c-9.67-3.4-17.1-6.8-23.53-8.89c0,0,0,0-0.02,0c-2.49,0.12-5.04,0.3-7.62,0.54
					c-9.62,0.91-16.57,4.53-21.41,8.41c0.05,0.07,0.09,0.14,0.14,0.2c0,0,0.05,0.07,0.12,0.19c1.22,1.74,2.51,3.38,3.89,4.93
					c0.47,0.52,0.94,1.01,1.43,1.5c0.07,0.07,0.14,0.14,0.21,0.21c6.4,6.5,14.52,11.1,23.53,13.23l1.41,0.3
					c0.47,0.09,0.94,0.19,1.41,0.26c0.02,0,0.05,0,0.07,0.02c4.81,1.01,9.6,1.97,14.38,2.72c2.49,0.4,5,0.75,7.51,0.99
					c1.22,0.14,2.46,0.23,3.71,0.3c1.97,0.14,3.94,0.23,5.91,0.23c1.88,0,3.75-0.05,5.63-0.16c-0.11,0.06-0.23,0.11-0.34,0.17
					c19.54-2.01,36.64-9.06,44.91-21.43c2.32-3.46,3.94-7.35,4.73-11.65c0.3-1.63,0.49-3.32,0.55-5.08
					C215.4,60.53,202.47,59.14,198.84,63.93z"/>
			</g>
		</g>
		<path class="st5" d="M187.6,69.16c-0.28-2.74-1.03-4.81-1.97-6.36c-0.05-0.09-0.09-0.19-0.16-0.28c-0.43-0.68-0.89-1.25-1.37-1.74
			c-2.27-2.33-4.78-2.63-4.78-2.63c-2.91-0.16-7.06,0.33-7.37,5.35c-0.3,4.72,3.28,6.69,3.71,6.9c-0.19-0.16-1.06-0.94-2.13-3.28
			c-1.27-2.67,2.35-7.53,6.29-5.02c1.67,1.06,2.7,3.14,2.51,5.33c-0.28,2.91-2.82,5.96-9.2,6.8h-0.02
			c-4.13,0.54-7.46,0.68-9.99,0.66c-0.05,0-0.07,0-0.12-0.02c-7.62-0.73-15.44-2.79-26.58-11.12
			c-12.81-9.55-16.87-11.35-36.32-12.69c-4.32-0.3-7.6-0.4-10.13-0.4c-0.62,0-1.19,0.01-1.72,0.02c-0.02,0.1-0.04,0.21-0.06,0.31
			l-0.02,0.21c-0.49,2.77-0.75,5.65-0.75,8.54c0,8.79,2.35,17.37,6.8,24.89c2.54-1.73,5.34-3.5,8.36-5.21
			c7.6-4.32,14.17-3.82,22.29-1.2c0.02,0,0.02,0,0.02,0c6.43,2.09,13.86,5.49,23.53,8.89c1.78,0.73,3.68,1.38,5.63,1.88
			c0.05,0.02,0.07,0.02,0.12,0.02c1.67,0.45,3.35,0.75,5.09,0.91c1.41,0.14,2.82,0.16,4.22,0.07c5.86-0.33,11.66-2.49,16.09-5.72
			c3.46-2.52,6.09-5.71,7.33-9.23C187.54,73.16,187.82,71.18,187.6,69.16z"/>
		<path class="st2" d="M30.73,12.37L0,89.81h15.11l7.59-19.74h29.16l7.59,19.74h14.99L43.7,12.37H30.73z M47.28,58.21H27.26
			l2.65-6.89c2.12-5.44,4.54-12.21,7.25-20.31h0.23c2.73,8.05,5.15,14.82,7.25,20.31L47.28,58.21z M234.92,56.7
			c0,5.48-0.66,9.76-1.97,12.85c-1.47,3.44-3.61,5.91-6.42,7.44c-2.82,1.52-6.14,2.29-9.95,2.29c-0.72,0-1.43-0.04-2.11-0.09
			c-0.79,4.3-2.41,8.18-4.73,11.65c2.09,0.27,4.3,0.42,6.67,0.42c4.05,0,7.72-0.39,11-1.19c3.28-0.79,6.18-1.93,8.71-3.42
			c2.53-1.48,4.67-3.3,6.42-5.44c1.75-2.14,3.15-4.56,4.2-7.26c0.85-2.16,1.46-4.55,1.82-7.18c0.37-2.62,0.55-5.56,0.55-8.8V12.37
			h-14.18V56.7z M200.19,69.55c-0.2-0.48-0.38-0.99-0.55-1.52c-0.05,0.11-0.1,0.22-0.14,0.33c-1.41,3.96-0.4,6.33-0.09,6.94
			c-0.58-1.02-3.78-6.88-0.67-11.21c-0.34-2.16-0.5-4.62-0.5-7.39V12.37h-14.18v10.39C173.26,8.68,155.98,0,136.41,0
			c-17.95,0-34.79,7.98-46.22,21.86C84.35,29,80.18,37.51,78.16,46.47c-0.89,3.82-1.36,7.79-1.45,11.78
			c-0.02,0.49-0.02,0.99-0.02,1.48c0,11,3,21.75,8.7,31.06c0.77,1.29,1.6,2.53,2.51,3.8c2.74,3.8,5.96,7.32,9.52,10.42
			c10.84,9.31,24.68,14.45,38.99,14.45c7.91,0,15.6-1.52,22.87-4.53c1.9-0.8,3.73-1.68,5.53-2.66c0.11-0.06,0.23-0.11,0.34-0.17
			c-1.88,0.12-3.75,0.16-5.63,0.16c-1.97,0-3.94-0.09-5.91-0.23c-1.24-0.07-2.49-0.16-3.71-0.3c-2.51-0.23-5.02-0.59-7.51-0.99
			c-4.79-0.75-9.57-1.71-14.38-2.72c-0.02-0.02-0.05-0.02-0.07-0.02c-0.47-0.07-0.94-0.16-1.41-0.26l-1.41-0.3
			c-9.01-2.13-17.13-6.73-23.53-13.23c-0.07-0.07-0.14-0.14-0.21-0.21c-0.49-0.49-0.96-0.99-1.43-1.5
			c-1.38-1.55-2.67-3.19-3.89-4.93c-0.07-0.12-0.12-0.19-0.12-0.19c-0.05-0.07-0.09-0.14-0.14-0.2c-0.54-0.78-1.05-1.58-1.53-2.4
			c-0.03-0.05-0.05-0.09-0.08-0.14c-4.45-7.52-6.8-16.1-6.8-24.89c0-2.89,0.26-5.77,0.75-8.54l0.02-0.21
			c0.02-0.1,0.04-0.21,0.06-0.31c0.2-1.05,0.44-2.13,0.74-3.28c0.05-0.2,0.11-0.4,0.17-0.6c2.65-9.72,8.16-18.28,15.97-24.76
			c0.8-0.67,1.64-1.3,2.48-1.92c8.33-6.07,18.44-9.39,28.82-9.39c22.41,0,41.62,14.43,47.63,34.86v12.4c0,0.97,0.02,1.9,0.05,2.81
			c0.47,0.49,0.94,1.06,1.37,1.74c0.07,0.09,0.12,0.19,0.16,0.28c0.94,1.55,1.69,3.61,1.97,6.36c0.22,2.02-0.05,4-0.72,5.88
			c0.98,2.26,2.2,4.33,3.7,6.18c0.68,0.84,1.43,1.61,2.22,2.35c5.82-1.15,10.89-3.44,13.39-6.82
			C203.59,75.2,201.58,72.81,200.19,69.55z M290.54,12.37L259.8,89.81h15.11l7.59-19.74h29.16l7.59,19.74h14.99L303.5,12.37H290.54z
			 M307.08,58.21h-20.02l2.65-6.89c2.12-5.44,4.54-12.21,7.25-20.31h0.23c2.73,8.05,5.15,14.82,7.25,20.31L307.08,58.21z
			 M384.87,14.34c-2.2-0.66-4.7-1.15-7.49-1.48c-2.8-0.33-6.07-0.49-9.81-0.49h-22.34v77.44h14.18V59.54
			c1.08,0.12,2.24,0.19,3.47,0.23c1.24,0.04,2.49,0.06,3.76,0.06c5.56,0,10.48-0.56,14.76-1.68c4.28-1.12,7.91-2.72,10.88-4.8
			c2.97-2.08,5.23-4.62,6.77-7.61c1.54-2.99,2.31-6.36,2.31-10.1c0-5.48-1.43-9.99-4.28-13.54
			C394.23,18.54,390.16,15.96,384.87,14.34z M385.68,40.47c-0.69,1.56-1.83,2.89-3.42,3.99c-1.58,1.1-3.66,1.96-6.25,2.57
			c-2.59,0.62-5.79,0.93-9.61,0.93c-1.35,0-2.65-0.03-3.91-0.09c-1.25-0.06-2.29-0.14-3.1-0.26V24.24h7.99
			c2.89,0,5.33,0.11,7.32,0.32c1.99,0.21,3.66,0.55,5.01,1.01c2.58,0.93,4.4,2.22,5.44,3.88c1.04,1.66,1.56,3.63,1.56,5.9
			C386.73,37.2,386.38,38.91,385.68,40.47z M455.37,57.75c6.25-1.81,10.87-4.6,13.86-8.36c2.99-3.76,4.49-8.34,4.49-13.75
			c0-5.17-1.24-9.46-3.7-12.88c-2.47-3.42-5.98-5.99-10.53-7.73c-2.39-0.89-5.27-1.55-8.63-2c-3.36-0.44-6.98-0.66-10.88-0.66
			h-23.56v77.44h14.18V59.83h9.72l21.07,29.98h17.01l-23.03-31.83V57.75z M445.85,47.53c-2.26,0.29-5.01,0.43-8.25,0.43h-7V24.24
			h10.13c3.01,0,5.54,0.14,7.58,0.43c2.05,0.29,3.74,0.74,5.09,1.36c2.08,0.93,3.56,2.19,4.43,3.79c0.87,1.6,1.3,3.44,1.3,5.53
			c0,2.43-0.55,4.58-1.65,6.45c-1.1,1.87-3.08,3.35-5.93,4.43C450,46.81,448.1,47.24,445.85,47.53z M560.33,34.86
			c-1.68-4.92-4.13-9.15-7.35-12.7c-3.22-3.55-7.18-6.31-11.87-8.28c-4.69-1.97-10.02-2.95-16-2.95c-5.98,0-11.32,0.99-16,2.95
			c-4.69,1.97-8.64,4.73-11.87,8.28c-3.22,3.55-5.67,7.78-7.35,12.7c-1.68,4.92-2.52,10.33-2.52,16.23s0.84,11.32,2.52,16.23
			c1.68,4.92,4.13,9.15,7.35,12.7c3.22,3.55,7.18,6.31,11.87,8.28c4.69,1.97,10.02,2.95,16,2.95c5.98,0,11.32-0.98,16-2.95
			c4.69-1.97,8.64-4.73,11.87-8.28c3.22-3.55,5.67-7.78,7.35-12.7c1.68-4.92,2.52-10.33,2.52-16.23S562.01,39.77,560.33,34.86z
			 M546.47,63.45c-1.16,3.53-2.76,6.46-4.8,8.8c-2.05,2.33-4.48,4.09-7.29,5.27c-2.82,1.18-5.9,1.77-9.26,1.77
			c-3.36,0-6.44-0.59-9.26-1.77c-2.82-1.18-5.25-2.93-7.29-5.27c-2.05-2.33-3.65-5.27-4.8-8.8c-1.16-3.53-1.74-7.65-1.74-12.36
			c0-4.71,0.58-8.83,1.74-12.36c1.16-3.53,2.76-6.47,4.8-8.83c2.04-2.35,4.47-4.11,7.29-5.27c2.82-1.16,5.9-1.74,9.26-1.74
			c3.36,0,6.44,0.58,9.26,1.74c2.82,1.16,5.25,2.91,7.29,5.27c2.04,2.36,3.65,5.3,4.8,8.83c1.16,3.53,1.74,7.65,1.74,12.36
			C548.2,55.8,547.62,59.92,546.47,63.45z"/>
	</g>
</g>
<g id="blanco">
	<g>
		<path class="st6" d="M212.83,108.18l-6.58,16.15h2.11l1.93-4.86h6.75l1.93,4.86h2.14l-6.58-16.15H212.83z M216.35,117.69H211
			l0.6-1.52c0.66-1.64,1.34-3.47,2.06-5.48h0.05c0.69,1.98,1.36,3.81,2.02,5.48L216.35,117.69z"/>
		<polygon class="st6" points="225.55,108.18 223.58,108.18 223.58,124.32 233.43,124.32 233.43,122.55 225.55,122.55 		"/>
		<path class="st6" d="M246.66,117.11c-0.29-0.3-0.63-0.55-1.03-0.74c-0.4-0.19-0.85-0.33-1.35-0.4v-0.05
			c0.47-0.16,0.86-0.36,1.19-0.6c0.33-0.24,0.59-0.52,0.8-0.82c0.21-0.31,0.35-0.64,0.45-1c0.09-0.36,0.14-0.74,0.14-1.13
			c0-0.49-0.08-0.95-0.23-1.36c-0.15-0.42-0.38-0.79-0.66-1.12c-0.29-0.33-0.63-0.61-1.04-0.85c-0.41-0.24-0.86-0.42-1.37-0.56
			c-0.19-0.05-0.39-0.09-0.61-0.13c-0.21-0.04-0.45-0.07-0.7-0.09c-0.25-0.02-0.52-0.04-0.82-0.05c-0.3-0.01-0.63-0.02-1-0.02h-3.98
			v16.15h4.13c0.81,0,1.51-0.03,2.09-0.1c0.58-0.06,1.11-0.18,1.59-0.34c0.62-0.21,1.14-0.48,1.56-0.81
			c0.42-0.33,0.76-0.69,1.01-1.08c0.26-0.39,0.44-0.79,0.55-1.21c0.11-0.41,0.17-0.81,0.17-1.19c0-0.53-0.08-1-0.23-1.42
			C247.17,117.77,246.95,117.42,246.66,117.11z M238.41,109.95h2.21c0.55,0,1.02,0.02,1.42,0.05c0.4,0.04,0.76,0.1,1.06,0.19
			c0.62,0.18,1.07,0.47,1.36,0.84c0.29,0.38,0.43,0.86,0.43,1.46c0,0.58-0.14,1.08-0.42,1.51c-0.28,0.43-0.72,0.74-1.32,0.94
			c-0.23,0.07-0.48,0.13-0.76,0.16c-0.28,0.04-0.62,0.05-1,0.05h-2.99V109.95z M245.49,120.4c-0.07,0.26-0.18,0.5-0.34,0.73
			c-0.16,0.23-0.36,0.44-0.62,0.63c-0.26,0.19-0.57,0.34-0.94,0.46c-0.34,0.11-0.75,0.2-1.23,0.25c-0.48,0.05-1.01,0.08-1.57,0.08
			h-2.38v-5.61h3.08c0.46,0,0.84,0.01,1.15,0.04c0.31,0.02,0.59,0.06,0.83,0.12c0.4,0.09,0.74,0.21,1.01,0.37
			c0.27,0.16,0.49,0.35,0.65,0.56c0.16,0.21,0.28,0.45,0.36,0.72c0.07,0.27,0.11,0.56,0.11,0.86
			C245.59,119.88,245.56,120.14,245.49,120.4z"/>
		<polygon class="st6" points="253.07,116.94 260.04,116.94 260.04,115.16 253.07,115.16 253.07,109.95 260.91,109.95 
			260.91,108.18 251.11,108.18 251.11,124.32 261.35,124.32 261.35,122.55 253.07,122.55 		"/>
		<path class="st6" d="M271.23,117.37c0.64-0.11,1.23-0.29,1.76-0.53c0.53-0.24,0.98-0.55,1.36-0.93c0.38-0.38,0.67-0.82,0.88-1.34
			c0.21-0.51,0.31-1.1,0.31-1.75c0-1.1-0.3-2.02-0.89-2.76c-0.6-0.73-1.45-1.26-2.58-1.56c-0.41-0.11-0.86-0.19-1.36-0.25
			c-0.49-0.05-1.09-0.08-1.8-0.08h-4.18v16.15h1.97v-6.68h2.38l4.97,6.68h1.97l-4.78-6.9V117.37z M268.64,115.86h-1.94v-5.91h2.23
			c0.62,0,1.13,0.02,1.53,0.06c0.4,0.04,0.75,0.1,1.04,0.19c0.61,0.18,1.09,0.49,1.44,0.91c0.35,0.42,0.52,0.98,0.53,1.67
			c0,0.74-0.19,1.34-0.56,1.8c-0.37,0.46-0.9,0.79-1.58,1c-0.34,0.1-0.72,0.18-1.15,0.22C269.76,115.84,269.24,115.86,268.64,115.86
			z"/>
		<path class="st6" d="M289,122.71c-0.31,0.05-0.61,0.09-0.91,0.12c-0.3,0.03-0.59,0.04-0.85,0.04c-0.99,0-1.88-0.13-2.68-0.39
			c-0.8-0.26-1.49-0.65-2.06-1.19c-0.57-0.54-1.01-1.21-1.32-2.03c-0.31-0.82-0.46-1.78-0.46-2.89c0-1.12,0.17-2.1,0.5-2.94
			c0.33-0.84,0.79-1.54,1.37-2.11c0.58-0.57,1.26-0.99,2.05-1.28c0.79-0.29,1.63-0.43,2.53-0.43c0.59,0,1.17,0.05,1.75,0.16
			c0.58,0.11,1.11,0.24,1.6,0.4v-1.74c-0.19-0.08-0.41-0.16-0.66-0.23c-0.26-0.07-0.54-0.13-0.84-0.19
			c-0.3-0.05-0.62-0.09-0.95-0.12c-0.33-0.03-0.66-0.04-1-0.04c-1.28,0-2.43,0.21-3.46,0.63c-1.03,0.42-1.9,1.01-2.62,1.77
			c-0.72,0.76-1.27,1.66-1.65,2.72c-0.38,1.05-0.57,2.21-0.57,3.46c0,1.28,0.18,2.42,0.54,3.43c0.36,1.01,0.89,1.86,1.6,2.56
			c0.7,0.7,1.57,1.24,2.61,1.61c1.04,0.37,2.23,0.56,3.57,0.56c0.66,0,1.3-0.05,1.93-0.15c0.63-0.1,1.18-0.24,1.65-0.43v-1.74
			c-0.23,0.08-0.49,0.15-0.78,0.22C289.6,122.6,289.3,122.66,289,122.71z"/>
		<path class="st6" d="M298.87,108.18l-6.58,16.15h2.11l1.93-4.86h6.75l1.93,4.86h2.14l-6.58-16.15H298.87z M302.39,117.69h-5.35
			l0.6-1.52c0.66-1.64,1.34-3.47,2.06-5.48h0.05c0.69,1.98,1.36,3.81,2.02,5.48L302.39,117.69z"/>
		<path class="st6" d="M318.19,116.52c-0.47-0.33-1.01-0.58-1.62-0.77c-0.61-0.18-1.22-0.35-1.85-0.51
			c-0.47-0.11-0.91-0.23-1.34-0.36c-0.43-0.13-0.81-0.29-1.13-0.5c-0.33-0.2-0.58-0.46-0.78-0.77c-0.19-0.31-0.29-0.7-0.29-1.18
			c0-0.43,0.07-0.81,0.22-1.16c0.14-0.35,0.37-0.65,0.66-0.89c0.3-0.25,0.67-0.44,1.12-0.57c0.45-0.13,0.98-0.2,1.59-0.2
			c0.81,0.01,1.57,0.1,2.29,0.28c0.71,0.18,1.4,0.41,2.07,0.69v-1.82c-0.62-0.27-1.3-0.48-2.05-0.65c-0.74-0.17-1.55-0.25-2.41-0.25
			c-0.76,0-1.47,0.09-2.14,0.28c-0.67,0.18-1.26,0.47-1.77,0.86c-0.51,0.39-0.92,0.87-1.22,1.47c-0.3,0.59-0.45,1.3-0.45,2.12
			c0,0.79,0.14,1.44,0.43,1.94c0.29,0.51,0.66,0.92,1.13,1.24c0.47,0.32,1.01,0.57,1.61,0.75c0.6,0.18,1.21,0.34,1.84,0.49
			c0.47,0.11,0.93,0.23,1.36,0.36c0.43,0.13,0.81,0.29,1.14,0.5c0.33,0.2,0.59,0.46,0.79,0.78c0.2,0.31,0.3,0.71,0.3,1.19
			c0,0.59-0.11,1.08-0.34,1.47c-0.22,0.39-0.53,0.7-0.92,0.92c-0.39,0.22-0.83,0.39-1.35,0.48c-0.51,0.1-1.05,0.14-1.61,0.14
			c-0.35,0-0.72-0.02-1.11-0.07c-0.39-0.05-0.78-0.11-1.17-0.2c-0.39-0.08-0.76-0.19-1.12-0.31c-0.36-0.12-0.69-0.25-0.98-0.4v1.8
			c0.18,0.11,0.44,0.23,0.76,0.34s0.68,0.21,1.08,0.3s0.82,0.16,1.26,0.21c0.44,0.05,0.87,0.08,1.28,0.08
			c0.91,0,1.75-0.09,2.51-0.28c0.76-0.19,1.43-0.48,1.99-0.87c0.56-0.39,1-0.89,1.32-1.5c0.32-0.61,0.48-1.33,0.48-2.17
			c0-0.82-0.15-1.49-0.44-2.02C319.05,117.27,318.67,116.85,318.19,116.52z"/>
		<polygon class="st6" points="330.81,116.02 330.75,116.02 326.07,108.18 323.92,108.18 329.8,117.83 329.8,124.32 331.76,124.32 
			331.76,117.83 337.64,108.18 335.49,108.18 		"/>
		<path class="st6" d="M347.88,120.38c0,0.47-0.06,0.87-0.18,1.19c-0.12,0.32-0.29,0.58-0.51,0.77c-0.22,0.19-0.48,0.33-0.78,0.41
			c-0.31,0.08-0.64,0.12-1,0.12c-0.4,0-0.78-0.03-1.13-0.1c-0.35-0.07-0.67-0.16-0.97-0.28v1.74c0.19,0.09,0.48,0.17,0.86,0.26
			c0.38,0.08,0.85,0.13,1.41,0.14c0.65,0,1.24-0.08,1.76-0.25c0.52-0.17,0.97-0.42,1.35-0.75c0.37-0.33,0.66-0.75,0.86-1.25
			c0.2-0.5,0.3-1.08,0.3-1.75v-12.44h-1.97V120.38z"/>
		<path class="st6" d="M358.84,108.18l-6.58,16.15h2.11l1.93-4.86h6.75l1.93,4.86h2.14l-6.58-16.15H358.84z M362.36,117.69h-5.35
			l0.6-1.52c0.66-1.64,1.34-3.47,2.06-5.48h0.05c0.69,1.98,1.36,3.81,2.02,5.48L362.36,117.69z"/>
		<path class="st6" d="M376.1,117.37c0.64-0.11,1.23-0.29,1.76-0.53c0.53-0.24,0.98-0.55,1.36-0.93c0.38-0.38,0.67-0.82,0.88-1.34
			c0.21-0.51,0.31-1.1,0.31-1.75c0-1.1-0.3-2.02-0.89-2.76c-0.6-0.73-1.45-1.26-2.58-1.56c-0.41-0.11-0.86-0.19-1.36-0.25
			c-0.49-0.05-1.1-0.08-1.8-0.08h-4.18v16.15h1.97v-6.68h2.38l4.97,6.68h1.97l-4.78-6.9V117.37z M373.5,115.86h-1.94v-5.91h2.23
			c0.62,0,1.13,0.02,1.53,0.06c0.4,0.04,0.75,0.1,1.04,0.19c0.61,0.18,1.09,0.49,1.44,0.91c0.35,0.42,0.52,0.98,0.53,1.67
			c0,0.74-0.18,1.34-0.56,1.8c-0.37,0.46-0.9,0.79-1.58,1c-0.34,0.1-0.72,0.18-1.15,0.22C374.62,115.84,374.11,115.86,373.5,115.86z
			"/>
		<path class="st6" d="M395.92,111.38c-0.46-0.65-1.05-1.21-1.75-1.68c-0.7-0.47-1.53-0.84-2.47-1.11
			c-0.54-0.15-1.12-0.26-1.75-0.32c-0.63-0.06-1.31-0.09-2.04-0.09h-3.69v16.15h3.66c0.73,0,1.41-0.03,2.04-0.09
			c0.63-0.06,1.21-0.17,1.75-0.32c0.94-0.27,1.76-0.64,2.47-1.12s1.29-1.06,1.76-1.72c0.47-0.66,0.82-1.41,1.06-2.24
			c0.23-0.83,0.35-1.71,0.35-2.66c0-0.93-0.11-1.8-0.34-2.61C396.73,112.76,396.38,112.03,395.92,111.38z M394.32,120.04
			c-0.69,1.01-1.67,1.71-2.95,2.11c-0.49,0.15-1.04,0.26-1.64,0.31c-0.6,0.06-1.28,0.08-2.04,0.08h-1.5v-12.6h1.5
			c0.76,0,1.44,0.03,2.04,0.08c0.6,0.06,1.15,0.16,1.64,0.31c1.28,0.4,2.26,1.09,2.95,2.05c0.69,0.96,1.03,2.22,1.03,3.78
			C395.34,117.75,395,119.03,394.32,120.04z"/>
		<rect x="400.8" y="108.18" class="st6" width="1.97" height="16.15"/>
		<path class="st6" d="M418.01,116.77c0,1.63,0.05,3.23,0.16,4.8h-0.07c-0.96-1.5-1.94-2.97-2.93-4.39l-6.34-9h-1.96v16.15h1.97
			v-8.24c0-1.96-0.05-3.68-0.16-5.15h0.07c0.86,1.36,1.84,2.82,2.93,4.39l6.34,9h1.97v-16.15h-1.98V116.77z"/>
		<polygon class="st6" points="426.04,116.94 433.01,116.94 433.01,115.16 426.04,115.16 426.04,109.95 433.88,109.95 
			433.88,108.18 424.08,108.18 424.08,124.32 434.32,124.32 434.32,122.55 426.04,122.55 		"/>
		<path class="st6" d="M446.27,116.52c-0.47-0.33-1.01-0.58-1.62-0.77c-0.61-0.18-1.22-0.35-1.85-0.51
			c-0.47-0.11-0.91-0.23-1.34-0.36c-0.43-0.13-0.81-0.29-1.13-0.5c-0.33-0.2-0.58-0.46-0.78-0.77c-0.19-0.31-0.29-0.7-0.29-1.18
			c0-0.43,0.07-0.81,0.22-1.16c0.14-0.35,0.37-0.65,0.66-0.89c0.3-0.25,0.67-0.44,1.12-0.57s0.98-0.2,1.59-0.2
			c0.81,0.01,1.57,0.1,2.29,0.28c0.71,0.18,1.4,0.41,2.07,0.69v-1.82c-0.62-0.27-1.3-0.48-2.05-0.65c-0.74-0.17-1.55-0.25-2.41-0.25
			c-0.76,0-1.47,0.09-2.14,0.28c-0.67,0.18-1.26,0.47-1.77,0.86c-0.51,0.39-0.92,0.87-1.22,1.47c-0.3,0.59-0.45,1.3-0.45,2.12
			c0,0.79,0.14,1.44,0.43,1.94c0.29,0.51,0.66,0.92,1.13,1.24c0.47,0.32,1.01,0.57,1.6,0.75c0.6,0.18,1.21,0.34,1.84,0.49
			c0.47,0.11,0.93,0.23,1.36,0.36c0.43,0.13,0.81,0.29,1.14,0.5c0.33,0.2,0.59,0.46,0.79,0.78c0.2,0.31,0.3,0.71,0.3,1.19
			c0,0.59-0.11,1.08-0.34,1.47c-0.22,0.39-0.53,0.7-0.92,0.92c-0.39,0.22-0.83,0.39-1.35,0.48c-0.51,0.1-1.05,0.14-1.61,0.14
			c-0.35,0-0.72-0.02-1.11-0.07c-0.39-0.05-0.78-0.11-1.17-0.2c-0.39-0.08-0.76-0.19-1.12-0.31c-0.36-0.12-0.69-0.25-0.98-0.4v1.8
			c0.18,0.11,0.44,0.23,0.76,0.34s0.68,0.21,1.08,0.3c0.4,0.09,0.82,0.16,1.25,0.21c0.44,0.05,0.87,0.08,1.29,0.08
			c0.91,0,1.75-0.09,2.51-0.28c0.76-0.19,1.43-0.48,1.99-0.87c0.56-0.39,1-0.89,1.32-1.5c0.32-0.61,0.48-1.33,0.48-2.17
			c0-0.82-0.15-1.49-0.44-2.02C447.13,117.27,446.75,116.85,446.27,116.52z"/>
		<path class="st6" d="M465.85,117.31c-0.38,0.88-0.86,2.14-1.44,3.78h-0.06c-0.52-1.47-1-2.73-1.44-3.78l-3.8-9.14h-2.84v16.15
			h1.97v-7.81c0-1.87-0.06-3.92-0.17-6.17h0.1c0.56,1.56,1.13,3,1.69,4.33l4.07,9.64h0.9l4.07-9.64c0.53-1.24,1.09-2.68,1.69-4.33
			h0.1c-0.11,2.28-0.17,4.34-0.17,6.17v7.81h1.97v-16.15h-2.84L465.85,117.31z"/>
		<path class="st6" d="M489.03,110.23c-0.65-0.74-1.44-1.32-2.36-1.73c-0.93-0.41-1.98-0.62-3.15-0.62c-1.15,0-2.19,0.21-3.11,0.62
			c-0.93,0.41-1.71,0.99-2.36,1.73c-0.65,0.74-1.15,1.62-1.51,2.65c-0.35,1.03-0.53,2.15-0.53,3.38c0,1.22,0.17,2.35,0.52,3.37
			c0.34,1.02,0.84,1.9,1.48,2.64c0.65,0.74,1.44,1.32,2.37,1.73c0.93,0.41,1.99,0.62,3.17,0.62c1.14,0,2.17-0.21,3.09-0.62
			c0.92-0.41,1.71-0.99,2.36-1.73c0.65-0.74,1.16-1.62,1.51-2.64c0.35-1.02,0.53-2.14,0.53-3.37c0-1.23-0.17-2.36-0.52-3.38
			C490.17,111.85,489.67,110.97,489.03,110.23z M488.64,119.13c-0.28,0.82-0.68,1.51-1.18,2.07c-0.5,0.56-1.09,0.97-1.76,1.26
			c-0.67,0.28-1.4,0.42-2.18,0.42c-0.79,0-1.52-0.14-2.2-0.42s-1.27-0.7-1.77-1.26c-0.5-0.55-0.89-1.24-1.18-2.07
			s-0.43-1.78-0.43-2.87c0-1.09,0.14-2.04,0.43-2.87c0.28-0.83,0.68-1.52,1.18-2.08c0.5-0.56,1.09-0.97,1.77-1.26
			c0.68-0.29,1.41-0.43,2.19-0.43s1.51,0.14,2.19,0.43c0.68,0.29,1.27,0.71,1.77,1.26c0.5,0.56,0.89,1.25,1.18,2.08
			c0.28,0.83,0.43,1.79,0.43,2.87C489.07,117.35,488.93,118.3,488.64,119.13z"/>
		<path class="st6" d="M501.15,117.37c0.64-0.11,1.23-0.29,1.76-0.53c0.53-0.24,0.98-0.55,1.36-0.93c0.38-0.38,0.67-0.82,0.88-1.34
			c0.21-0.51,0.31-1.1,0.31-1.75c0-1.1-0.3-2.02-0.89-2.76c-0.6-0.73-1.45-1.26-2.58-1.56c-0.41-0.11-0.86-0.19-1.36-0.25
			c-0.49-0.05-1.1-0.08-1.8-0.08h-4.18v16.15h1.97v-6.68h2.38l4.97,6.68h1.97l-4.78-6.9V117.37z M498.55,115.86h-1.94v-5.91h2.23
			c0.62,0,1.13,0.02,1.53,0.06c0.4,0.04,0.75,0.1,1.04,0.19c0.61,0.18,1.09,0.49,1.44,0.91c0.35,0.42,0.52,0.98,0.53,1.67
			c0,0.74-0.18,1.34-0.56,1.8c-0.37,0.46-0.9,0.79-1.58,1c-0.34,0.1-0.72,0.18-1.15,0.22C499.67,115.84,499.16,115.86,498.55,115.86
			z"/>
		<polygon class="st6" points="511.24,116.94 518.2,116.94 518.2,115.16 511.24,115.16 511.24,109.95 519.07,109.95 519.07,108.18 
			509.27,108.18 509.27,124.32 519.51,124.32 519.51,122.55 511.24,122.55 		"/>
		<polygon class="st6" points="524.86,108.18 522.89,108.18 522.89,124.32 532.74,124.32 532.74,122.55 524.86,122.55 		"/>
		<path class="st6" d="M547.23,110.23c-0.65-0.74-1.44-1.32-2.36-1.73c-0.93-0.41-1.98-0.62-3.15-0.62c-1.15,0-2.19,0.21-3.11,0.62
			c-0.93,0.41-1.71,0.99-2.36,1.73c-0.65,0.74-1.15,1.62-1.51,2.65c-0.35,1.03-0.53,2.15-0.53,3.38c0,1.22,0.17,2.35,0.52,3.37
			c0.34,1.02,0.84,1.9,1.48,2.64c0.65,0.74,1.44,1.32,2.37,1.73c0.93,0.41,1.99,0.62,3.17,0.62c1.14,0,2.17-0.21,3.09-0.62
			c0.92-0.41,1.71-0.99,2.36-1.73c0.65-0.74,1.16-1.62,1.51-2.64c0.35-1.02,0.53-2.14,0.53-3.37c0-1.23-0.17-2.36-0.52-3.38
			C548.37,111.85,547.87,110.97,547.23,110.23z M546.84,119.13c-0.28,0.82-0.68,1.51-1.18,2.07c-0.5,0.56-1.09,0.97-1.76,1.26
			c-0.67,0.28-1.4,0.42-2.18,0.42c-0.79,0-1.52-0.14-2.2-0.42s-1.27-0.7-1.77-1.26c-0.5-0.55-0.89-1.24-1.18-2.07
			s-0.43-1.78-0.43-2.87c0-1.09,0.14-2.04,0.43-2.87c0.28-0.83,0.68-1.52,1.18-2.08c0.5-0.56,1.09-0.97,1.77-1.26
			c0.68-0.29,1.41-0.43,2.19-0.43c0.78,0,1.51,0.14,2.19,0.43c0.68,0.29,1.27,0.71,1.77,1.26c0.5,0.56,0.89,1.25,1.18,2.08
			c0.28,0.83,0.43,1.79,0.43,2.87C547.27,117.35,547.13,118.3,546.84,119.13z"/>
		<path class="st6" d="M562.57,117.79c-0.29-0.52-0.68-0.95-1.15-1.27c-0.47-0.33-1.01-0.58-1.62-0.77
			c-0.61-0.18-1.22-0.35-1.85-0.51c-0.47-0.11-0.91-0.23-1.34-0.36c-0.43-0.13-0.81-0.29-1.13-0.5c-0.33-0.2-0.58-0.46-0.78-0.77
			c-0.19-0.31-0.29-0.7-0.29-1.18c0-0.43,0.07-0.81,0.22-1.16c0.14-0.35,0.37-0.65,0.66-0.89c0.3-0.25,0.67-0.44,1.12-0.57
			s0.98-0.2,1.59-0.2c0.81,0.01,1.57,0.1,2.29,0.28c0.71,0.18,1.4,0.41,2.07,0.69v-1.82c-0.62-0.27-1.3-0.48-2.05-0.65
			c-0.74-0.17-1.55-0.25-2.41-0.25c-0.76,0-1.47,0.09-2.14,0.28c-0.67,0.18-1.26,0.47-1.77,0.86c-0.51,0.39-0.92,0.87-1.22,1.47
			c-0.3,0.59-0.45,1.3-0.45,2.12c0,0.79,0.14,1.44,0.43,1.94c0.29,0.51,0.66,0.92,1.13,1.24c0.47,0.32,1.01,0.57,1.6,0.75
			c0.6,0.18,1.21,0.34,1.84,0.49c0.47,0.11,0.93,0.23,1.36,0.36c0.43,0.13,0.81,0.29,1.14,0.5c0.33,0.2,0.59,0.46,0.79,0.78
			c0.2,0.31,0.3,0.71,0.3,1.19c0,0.59-0.11,1.08-0.34,1.47c-0.22,0.39-0.53,0.7-0.92,0.92c-0.39,0.22-0.83,0.39-1.35,0.48
			c-0.51,0.1-1.05,0.14-1.61,0.14c-0.35,0-0.72-0.02-1.11-0.07c-0.39-0.05-0.78-0.11-1.17-0.2c-0.39-0.08-0.76-0.19-1.12-0.31
			c-0.36-0.12-0.69-0.25-0.98-0.4v1.8c0.18,0.11,0.44,0.23,0.76,0.34s0.68,0.21,1.08,0.3c0.4,0.09,0.82,0.16,1.25,0.21
			c0.44,0.05,0.87,0.08,1.29,0.08c0.91,0,1.75-0.09,2.51-0.28c0.76-0.19,1.43-0.48,1.99-0.87c0.56-0.39,1-0.89,1.32-1.5
			c0.32-0.61,0.48-1.33,0.48-2.17C563,118.99,562.86,118.32,562.57,117.79z"/>
		<path class="st3" d="M134.54,30.61c-9.26-8.78-20.95-10.34-26.95-10.5c-0.84,0.61-1.67,1.25-2.48,1.92
			c-7.82,6.48-13.33,15.04-15.97,24.76c4.45,0.03,9.72,0.26,15.89,0.8c24.22,2.15,45.01,18.3,45.01,18.3S147.56,42.97,134.54,30.61z
			"/>
		<g>
			<g>
				<path class="st4" d="M198.84,63.93c-0.04,0.05-0.07,0.11-0.11,0.17c-3.1,4.33,0.09,10.19,0.67,11.21
					c-0.3-0.61-1.31-2.98,0.09-6.94c0.04-0.12,0.09-0.22,0.14-0.33c1.99-4.17,11.3-1.74,7.6,6.92c-0.27,0.63-0.62,1.22-1.04,1.79
					c-2.5,3.39-7.58,5.67-13.39,6.82c-1.47,0.29-2.97,0.51-4.5,0.66c-2.28,0.23-4.6,0.3-6.85,0.16c-0.63-0.02-1.27-0.07-1.9-0.12
					c-4.43,3.24-10.23,5.4-16.09,5.72c-1.41,0.09-2.82,0.07-4.22-0.07c-1.74-0.16-3.43-0.47-5.09-0.91c-0.05,0-0.07,0-0.12-0.02
					c-1.95-0.49-3.85-1.15-5.63-1.88c-9.67-3.4-17.1-6.8-23.53-8.89c0,0,0,0-0.02,0c-2.49,0.12-5.04,0.3-7.62,0.54
					c-9.62,0.91-16.57,4.53-21.41,8.41c0.05,0.07,0.09,0.14,0.14,0.2c0,0,0.05,0.07,0.12,0.19c1.22,1.74,2.51,3.38,3.89,4.93
					c0.47,0.52,0.94,1.01,1.43,1.5c0.07,0.07,0.14,0.14,0.21,0.21c6.4,6.5,14.52,11.1,23.53,13.23l1.41,0.3
					c0.47,0.09,0.94,0.19,1.41,0.26c0.02,0,0.05,0,0.07,0.02c4.81,1.01,9.6,1.97,14.38,2.72c2.49,0.4,5,0.75,7.51,0.99
					c1.22,0.14,2.46,0.23,3.71,0.3c1.97,0.14,3.94,0.23,5.91,0.23c1.88,0,3.75-0.05,5.63-0.16c-0.11,0.06-0.23,0.11-0.34,0.17
					c19.54-2.01,36.64-9.06,44.91-21.43c2.32-3.46,3.94-7.35,4.73-11.65c0.3-1.63,0.49-3.32,0.55-5.08
					C215.4,60.53,202.47,59.14,198.84,63.93z"/>
			</g>
		</g>
		<path class="st5" d="M187.6,69.16c-0.28-2.74-1.03-4.81-1.97-6.36c-0.05-0.09-0.09-0.19-0.16-0.28c-0.43-0.68-0.89-1.25-1.37-1.74
			c-2.27-2.33-4.78-2.63-4.78-2.63c-2.91-0.16-7.06,0.33-7.37,5.35c-0.3,4.72,3.28,6.69,3.71,6.9c-0.19-0.16-1.06-0.94-2.13-3.28
			c-1.27-2.67,2.35-7.53,6.29-5.02c1.67,1.06,2.7,3.14,2.51,5.33c-0.28,2.91-2.82,5.96-9.2,6.8h-0.02
			c-4.13,0.54-7.46,0.68-9.99,0.66c-0.05,0-0.07,0-0.12-0.02c-7.62-0.73-15.44-2.79-26.58-11.12
			c-12.81-9.55-16.87-11.35-36.32-12.69c-4.32-0.3-7.6-0.4-10.13-0.4c-0.62,0-1.19,0.01-1.72,0.02c-0.02,0.1-0.04,0.21-0.06,0.31
			l-0.02,0.21c-0.49,2.77-0.75,5.65-0.75,8.54c0,8.79,2.35,17.37,6.8,24.89c2.54-1.73,5.34-3.5,8.36-5.21
			c7.6-4.32,14.17-3.82,22.29-1.2c0.02,0,0.02,0,0.02,0c6.43,2.09,13.86,5.49,23.53,8.89c1.78,0.73,3.68,1.38,5.63,1.88
			c0.05,0.02,0.07,0.02,0.12,0.02c1.67,0.45,3.35,0.75,5.09,0.91c1.41,0.14,2.82,0.16,4.22,0.07c5.86-0.33,11.66-2.49,16.09-5.72
			c3.46-2.52,6.09-5.71,7.33-9.23C187.54,73.16,187.82,71.18,187.6,69.16z"/>
		<path class="st6" d="M30.73,12.37L0,89.81h15.11l7.59-19.74h29.16l7.59,19.74h14.99L43.7,12.37H30.73z M47.28,58.21H27.26
			l2.65-6.89c2.12-5.44,4.54-12.21,7.25-20.31h0.23c2.73,8.05,5.15,14.82,7.25,20.31L47.28,58.21z M234.92,56.7
			c0,5.48-0.66,9.76-1.97,12.85c-1.47,3.44-3.61,5.91-6.42,7.44c-2.82,1.52-6.14,2.29-9.95,2.29c-0.72,0-1.43-0.04-2.11-0.09
			c-0.79,4.3-2.41,8.18-4.73,11.65c2.09,0.27,4.3,0.42,6.67,0.42c4.05,0,7.72-0.39,11-1.19c3.28-0.79,6.18-1.93,8.71-3.42
			c2.53-1.48,4.67-3.3,6.42-5.44c1.75-2.14,3.15-4.56,4.2-7.26c0.85-2.16,1.46-4.55,1.82-7.18c0.37-2.62,0.55-5.56,0.55-8.8V12.37
			h-14.18V56.7z M200.19,69.55c-0.2-0.48-0.38-0.99-0.55-1.52c-0.05,0.11-0.1,0.22-0.14,0.33c-1.41,3.96-0.4,6.33-0.09,6.94
			c-0.58-1.02-3.78-6.88-0.67-11.21c-0.34-2.16-0.5-4.62-0.5-7.39V12.37h-14.18v10.39C173.26,8.68,155.98,0,136.41,0
			c-17.95,0-34.79,7.98-46.22,21.86C84.35,29,80.18,37.51,78.16,46.47c-0.89,3.82-1.36,7.79-1.45,11.78
			c-0.02,0.49-0.02,0.99-0.02,1.48c0,11,3,21.75,8.7,31.06c0.77,1.29,1.6,2.53,2.51,3.8c2.74,3.8,5.96,7.32,9.52,10.42
			c10.84,9.31,24.68,14.45,38.99,14.45c7.91,0,15.6-1.52,22.87-4.53c1.9-0.8,3.73-1.68,5.53-2.66c0.11-0.06,0.23-0.11,0.34-0.17
			c-1.88,0.12-3.75,0.16-5.63,0.16c-1.97,0-3.94-0.09-5.91-0.23c-1.24-0.07-2.49-0.16-3.71-0.3c-2.51-0.23-5.02-0.59-7.51-0.99
			c-4.79-0.75-9.57-1.71-14.38-2.72c-0.02-0.02-0.05-0.02-0.07-0.02c-0.47-0.07-0.94-0.16-1.41-0.26l-1.41-0.3
			c-9.01-2.13-17.13-6.73-23.53-13.23c-0.07-0.07-0.14-0.14-0.21-0.21c-0.49-0.49-0.96-0.99-1.43-1.5
			c-1.38-1.55-2.67-3.19-3.89-4.93c-0.07-0.12-0.12-0.19-0.12-0.19c-0.05-0.07-0.09-0.14-0.14-0.2c-0.54-0.78-1.05-1.58-1.53-2.4
			c-0.03-0.05-0.05-0.09-0.08-0.14c-4.45-7.52-6.8-16.1-6.8-24.89c0-2.89,0.26-5.77,0.75-8.54l0.02-0.21
			c0.02-0.1,0.04-0.21,0.06-0.31c0.2-1.05,0.44-2.13,0.74-3.28c0.05-0.2,0.11-0.4,0.17-0.6c2.65-9.72,8.16-18.28,15.97-24.76
			c0.8-0.67,1.64-1.3,2.48-1.92c8.33-6.07,18.44-9.39,28.82-9.39c22.41,0,41.62,14.43,47.63,34.86v12.4c0,0.97,0.02,1.9,0.05,2.81
			c0.47,0.49,0.94,1.06,1.37,1.74c0.07,0.09,0.12,0.19,0.16,0.28c0.94,1.55,1.69,3.61,1.97,6.36c0.22,2.02-0.05,4-0.72,5.88
			c0.98,2.26,2.2,4.33,3.7,6.18c0.68,0.84,1.43,1.61,2.22,2.35c5.82-1.15,10.89-3.44,13.39-6.82
			C203.59,75.2,201.58,72.81,200.19,69.55z M290.54,12.37L259.8,89.81h15.11l7.59-19.74h29.16l7.59,19.74h14.99L303.5,12.37H290.54z
			 M307.08,58.21h-20.02l2.65-6.89c2.12-5.44,4.54-12.21,7.25-20.31h0.23c2.73,8.05,5.15,14.82,7.25,20.31L307.08,58.21z
			 M384.87,14.34c-2.2-0.66-4.7-1.15-7.49-1.48c-2.8-0.33-6.07-0.49-9.81-0.49h-22.34v77.44h14.18V59.54
			c1.08,0.12,2.24,0.19,3.47,0.23c1.24,0.04,2.49,0.06,3.76,0.06c5.56,0,10.48-0.56,14.76-1.68c4.28-1.12,7.91-2.72,10.88-4.8
			c2.97-2.08,5.23-4.62,6.77-7.61c1.54-2.99,2.31-6.36,2.31-10.1c0-5.48-1.43-9.99-4.28-13.54
			C394.23,18.54,390.16,15.96,384.87,14.34z M385.68,40.47c-0.69,1.56-1.83,2.89-3.42,3.99c-1.58,1.1-3.66,1.96-6.25,2.57
			c-2.59,0.62-5.79,0.93-9.61,0.93c-1.35,0-2.65-0.03-3.91-0.09c-1.25-0.06-2.29-0.14-3.1-0.26V24.24h7.99
			c2.89,0,5.33,0.11,7.32,0.32c1.99,0.21,3.66,0.55,5.01,1.01c2.58,0.93,4.4,2.22,5.44,3.88c1.04,1.66,1.56,3.63,1.56,5.9
			C386.73,37.2,386.38,38.91,385.68,40.47z M455.37,57.75c6.25-1.81,10.87-4.6,13.86-8.36c2.99-3.76,4.49-8.34,4.49-13.75
			c0-5.17-1.24-9.46-3.7-12.88c-2.47-3.42-5.98-5.99-10.53-7.73c-2.39-0.89-5.27-1.55-8.63-2c-3.36-0.44-6.98-0.66-10.88-0.66
			h-23.56v77.44h14.18V59.83h9.72l21.07,29.98h17.01l-23.03-31.83V57.75z M445.85,47.53c-2.26,0.29-5.01,0.43-8.25,0.43h-7V24.24
			h10.13c3.01,0,5.54,0.14,7.58,0.43c2.05,0.29,3.74,0.74,5.09,1.36c2.08,0.93,3.56,2.19,4.43,3.79c0.87,1.6,1.3,3.44,1.3,5.53
			c0,2.43-0.55,4.58-1.65,6.45c-1.1,1.87-3.08,3.35-5.93,4.43C450,46.81,448.1,47.24,445.85,47.53z M560.33,34.86
			c-1.68-4.92-4.13-9.15-7.35-12.7c-3.22-3.55-7.18-6.31-11.87-8.28c-4.69-1.97-10.02-2.95-16-2.95c-5.98,0-11.32,0.99-16,2.95
			c-4.69,1.97-8.64,4.73-11.87,8.28c-3.22,3.55-5.67,7.78-7.35,12.7c-1.68,4.92-2.52,10.33-2.52,16.23s0.84,11.32,2.52,16.23
			c1.68,4.92,4.13,9.15,7.35,12.7c3.22,3.55,7.18,6.31,11.87,8.28c4.69,1.97,10.02,2.95,16,2.95c5.98,0,11.32-0.98,16-2.95
			c4.69-1.97,8.64-4.73,11.87-8.28c3.22-3.55,5.67-7.78,7.35-12.7c1.68-4.92,2.52-10.33,2.52-16.23S562.01,39.77,560.33,34.86z
			 M546.47,63.45c-1.16,3.53-2.76,6.46-4.8,8.8c-2.05,2.33-4.48,4.09-7.29,5.27c-2.82,1.18-5.9,1.77-9.26,1.77
			c-3.36,0-6.44-0.59-9.26-1.77c-2.82-1.18-5.25-2.93-7.29-5.27c-2.05-2.33-3.65-5.27-4.8-8.8c-1.16-3.53-1.74-7.65-1.74-12.36
			c0-4.71,0.58-8.83,1.74-12.36c1.16-3.53,2.76-6.47,4.8-8.83c2.04-2.35,4.47-4.11,7.29-5.27c2.82-1.16,5.9-1.74,9.26-1.74
			c3.36,0,6.44,0.58,9.26,1.74c2.82,1.16,5.25,2.91,7.29,5.27c2.04,2.36,3.65,5.3,4.8,8.83c1.16,3.53,1.74,7.65,1.74,12.36
			C548.2,55.8,547.62,59.92,546.47,63.45z"/>
	</g>
</g>
</svg>
